<svg width="28" height="28" viewBox="0 0 28 28" fill="none" xmlns="http://www.w3.org/2000/svg">
    <g filter="url(#filter0_d_0_1)">
        <rect width="24" height="24" rx="5" fill="url(#paint0_linear_0_1)"/>
    </g>
    <path fill-rule="evenodd" clip-rule="evenodd" d="M8.64062 4.375C8.64062 4.375 9.99329 4.375 10.9498 5.33148C10.9498 5.33148 11.9062 6.28796 11.9062 7.64062C11.9062 7.64062 11.9062 8.99329 10.9498 9.94977C10.9498 9.94977 9.99329 10.9062 8.64062 10.9062C8.64062 10.9062 7.28796 10.9062 6.33148 9.94977C6.33148 9.94977 5.375 8.99329 5.375 7.64062C5.375 7.64062 5.375 6.28796 6.33148 5.33148C6.33148 5.33148 7.28796 4.375 8.64062 4.375ZM8.64062 5.5625C8.64062 5.5625 7.77984 5.5625 7.17117 6.17117C7.17117 6.17117 6.5625 6.77984 6.5625 7.64062C6.5625 7.64062 6.5625 8.50141 7.17117 9.11008C7.17117 9.11008 7.77984 9.71875 8.64062 9.71875C8.64062 9.71875 9.50141 9.71875 10.1101 9.11008C10.1101 9.11008 10.7188 8.50141 10.7188 7.64062C10.7188 7.64062 10.7188 6.77984 10.1101 6.17117C10.1101 6.17117 9.50141 5.5625 8.64062 5.5625Z" fill="white"/>
    <path fill-rule="evenodd" clip-rule="evenodd" d="M16.3594 4.375C16.3594 4.375 17.712 4.375 18.6685 5.33148C18.6685 5.33148 19.625 6.28796 19.625 7.64062C19.625 7.64062 19.625 8.99329 18.6685 9.94977C18.6685 9.94977 17.712 10.9062 16.3594 10.9062C16.3594 10.9062 15.0067 10.9062 14.0502 9.94977C14.0502 9.94977 13.0938 8.99329 13.0938 7.64062C13.0938 7.64062 13.0938 6.28796 14.0502 5.33148C14.0502 5.33148 15.0067 4.375 16.3594 4.375ZM16.3594 5.5625C16.3594 5.5625 15.4986 5.5625 14.8899 6.17117C14.8899 6.17117 14.2812 6.77984 14.2812 7.64062C14.2812 7.64062 14.2812 8.50141 14.8899 9.11008C14.8899 9.11008 15.4986 9.71875 16.3594 9.71875C16.3594 9.71875 17.2202 9.71875 17.8288 9.11008C17.8288 9.11008 18.4375 8.50141 18.4375 7.64062C18.4375 7.64062 18.4375 6.77984 17.8288 6.17117C17.8288 6.17117 17.2202 5.5625 16.3594 5.5625Z" fill="white"/>
    <path fill-rule="evenodd" clip-rule="evenodd" d="M8.64062 12.0938C8.64062 12.0938 9.99329 12.0938 10.9498 13.0502C10.9498 13.0502 11.9062 14.0067 11.9062 15.3594C11.9062 15.3594 11.9062 16.712 10.9498 17.6685C10.9498 17.6685 9.99329 18.625 8.64062 18.625C8.64062 18.625 7.28796 18.625 6.33148 17.6685C6.33148 17.6685 5.375 16.712 5.375 15.3594C5.375 15.3594 5.375 14.0067 6.33148 13.0502C6.33148 13.0502 7.28796 12.0938 8.64062 12.0938ZM8.64062 13.2812C8.64062 13.2812 7.77984 13.2812 7.17117 13.8899C7.17117 13.8899 6.5625 14.4986 6.5625 15.3594C6.5625 15.3594 6.5625 16.2202 7.17117 16.8288C7.17117 16.8288 7.77984 17.4375 8.64062 17.4375C8.64062 17.4375 9.50141 17.4375 10.1101 16.8288C10.1101 16.8288 10.7188 16.2202 10.7188 15.3594C10.7188 15.3594 10.7188 14.4986 10.1101 13.8899C10.1101 13.8899 9.50141 13.2812 8.64062 13.2812Z" fill="white"/>
    <path d="M15.7656 13.2812V17.4375C15.7656 17.7654 16.0315 18.0312 16.3594 18.0312C16.6873 18.0312 16.9531 17.7654 16.9531 17.4375V13.2812C16.9531 12.9533 16.6873 12.6875 16.3594 12.6875C16.0315 12.6875 15.7656 12.9533 15.7656 13.2812Z" fill="white"/>
    <path d="M18.4375 14.7656H14.2812C13.9533 14.7656 13.6875 15.0315 13.6875 15.3594C13.6875 15.6873 13.9533 15.9531 14.2812 15.9531H18.4375C18.7654 15.9531 19.0312 15.6873 19.0312 15.3594C19.0312 15.0315 18.7654 14.7656 18.4375 14.7656Z" fill="white"/>
    <defs>
        <filter id="filter0_d_0_1" x="0" y="0" width="28" height="28" filterUnits="userSpaceOnUse" color-interpolation-filters="sRGB">
            <feFlood flood-opacity="0" result="BackgroundImageFix"/>
            <feColorMatrix in="SourceAlpha" type="matrix" values="0 0 0 0 0 0 0 0 0 0 0 0 0 0 0 0 0 0 127 0" result="hardAlpha"/>
            <feMorphology radius="1" operator="erode" in="SourceAlpha" result="effect1_dropShadow_0_1"/>
            <feOffset dx="3" dy="3"/>
            <feGaussianBlur stdDeviation="1"/>
            <feComposite in2="hardAlpha" operator="out"/>
            <feColorMatrix type="matrix" values="0 0 0 0 0 0 0 0 0 0 0 0 0 0 0 0 0 0 0.5 0"/>
            <feBlend mode="normal" in2="BackgroundImageFix" result="effect1_dropShadow_0_1"/>
            <feBlend mode="normal" in="SourceGraphic" in2="effect1_dropShadow_0_1" result="shape"/>
        </filter>
        <linearGradient id="paint0_linear_0_1" x1="0" y1="12" x2="24" y2="12" gradientUnits="userSpaceOnUse">
            <stop stop-color="#47A38E"/>
            <stop offset="1" stop-color="#7E5195"/>
        </linearGradient>
    </defs>
</svg>
