<svg width="28" height="28" viewBox="0 0 28 28" fill="none" xmlns="http://www.w3.org/2000/svg">
    <g filter="url(#filter0_d_0_1)">
        <rect width="24" height="24" rx="5" fill="url(#paint0_linear_0_1)"/>
    </g>
    <path fill-rule="evenodd" clip-rule="evenodd" d="M6.5625 18.6249H9.87911L9.88008 18.6249C9.88008 18.6249 10.114 18.6254 10.3305 18.5365C10.3305 18.5365 10.5479 18.4472 10.7145 18.2814L19.6218 9.37408C19.6218 9.37408 19.7886 9.20987 19.8807 8.98982C19.8807 8.98982 19.9728 8.76975 19.9728 8.53118C19.9728 8.53118 19.9728 8.29261 19.8807 8.07255C19.8807 8.07255 19.7886 7.85249 19.6186 7.68509L16.3116 4.37814C16.3116 4.37814 16.1474 4.21138 15.9274 4.11924C15.9274 4.11924 15.7073 4.0271 15.4688 4.0271C15.4688 4.0271 15.2302 4.0271 15.0101 4.11924C15.0101 4.11924 14.7901 4.21138 14.6227 4.38136L5.71961 13.2844C5.71961 13.2844 5.55278 13.452 5.46348 13.6695C5.46348 13.6695 5.37418 13.8869 5.37501 14.1219L5.375 17.4374C5.375 17.4374 5.375 17.9293 5.72281 18.2771C5.72281 18.2771 6.07062 18.6249 6.5625 18.6249ZM18.7821 8.53439L9.87907 17.4374H6.5625L6.5625 14.1209L15.4688 5.2146L15.472 5.21783L18.7853 8.53119L18.7821 8.53439Z" fill="white"/>
    <path d="M16.8298 11.3258C16.9412 11.4371 17.0925 11.5 17.25 11.5C17.4075 11.5 17.5585 11.4374 17.6698 11.3261C17.7812 11.2147 17.8437 11.0637 17.8437 10.9062C17.8437 10.7488 17.7812 10.5978 17.6698 10.4864L13.5137 6.33023C13.4022 6.21881 13.2512 6.15625 13.0937 6.15625C12.9363 6.15625 12.7853 6.21881 12.6739 6.33016C12.5626 6.44151 12.5 6.59253 12.5 6.75C12.5 6.90747 12.5626 7.05849 12.6739 7.16984L16.8298 11.3258Z" fill="white"/>
    <defs>
        <filter id="filter0_d_0_1" x="0" y="0" width="28" height="28" filterUnits="userSpaceOnUse" color-interpolation-filters="sRGB">
            <feFlood flood-opacity="0" result="BackgroundImageFix"/>
            <feColorMatrix in="SourceAlpha" type="matrix" values="0 0 0 0 0 0 0 0 0 0 0 0 0 0 0 0 0 0 127 0" result="hardAlpha"/>
            <feMorphology radius="1" operator="erode" in="SourceAlpha" result="effect1_dropShadow_0_1"/>
            <feOffset dx="3" dy="3"/>
            <feGaussianBlur stdDeviation="1"/>
            <feComposite in2="hardAlpha" operator="out"/>
            <feColorMatrix type="matrix" values="0 0 0 0 0 0 0 0 0 0 0 0 0 0 0 0 0 0 0.5 0"/>
            <feBlend mode="normal" in2="BackgroundImageFix" result="effect1_dropShadow_0_1"/>
            <feBlend mode="normal" in="SourceGraphic" in2="effect1_dropShadow_0_1" result="shape"/>
        </filter>
        <linearGradient id="paint0_linear_0_1" x1="0" y1="12" x2="24" y2="12" gradientUnits="userSpaceOnUse">
            <stop stop-color="#47A38E"/>
            <stop offset="1" stop-color="#7E5195"/>
        </linearGradient>
    </defs>
</svg>
