<svg width="30" height="30" viewBox="0 0 30 30" fill="none" xmlns="http://www.w3.org/2000/svg">
    <rect width="30" height="30" rx="6" fill="url(#paint0_linear_0_1)"/>
    <path d="M2.71023 9.99006V7.45455H14.6562V9.99006H10.2031V22H7.16335V9.99006H2.71023ZM24.5142 11.6378C24.4574 11.0649 24.2135 10.6198 23.7827 10.3026C23.3518 9.98532 22.767 9.8267 22.0284 9.8267C21.5265 9.8267 21.1027 9.89773 20.7571 10.0398C20.4115 10.1771 20.1463 10.3688 19.9616 10.6151C19.7817 10.8613 19.6918 11.1406 19.6918 11.4531C19.6823 11.7135 19.7367 11.9408 19.8551 12.1349C19.9782 12.3291 20.1463 12.4972 20.3594 12.6392C20.5724 12.7765 20.8187 12.8973 21.098 13.0014C21.3774 13.1009 21.6757 13.1861 21.9929 13.2571L23.2997 13.5696C23.9342 13.7116 24.5166 13.901 25.0469 14.1378C25.5772 14.3745 26.0365 14.6657 26.4247 15.0114C26.813 15.357 27.1136 15.7642 27.3267 16.233C27.5445 16.7017 27.6558 17.2391 27.6605 17.8452C27.6558 18.7353 27.4285 19.5071 26.9787 20.1605C26.5336 20.8092 25.8897 21.3134 25.0469 21.6733C24.2088 22.0284 23.1979 22.206 22.0142 22.206C20.84 22.206 19.8172 22.026 18.946 21.6662C18.0795 21.3063 17.4025 20.7737 16.9148 20.0682C16.4318 19.358 16.1785 18.4796 16.1548 17.4332H19.1307C19.1638 17.9209 19.3035 18.3281 19.5497 18.6548C19.8007 18.9768 20.1345 19.2206 20.5511 19.3864C20.9725 19.5473 21.4484 19.6278 21.9787 19.6278C22.4995 19.6278 22.9517 19.5521 23.3352 19.4006C23.7235 19.2491 24.0241 19.0384 24.2372 18.7685C24.4503 18.4986 24.5568 18.1884 24.5568 17.8381C24.5568 17.5114 24.4598 17.2367 24.2656 17.0142C24.0762 16.7917 23.7969 16.6023 23.4276 16.446C23.063 16.2898 22.6155 16.1477 22.0852 16.0199L20.5014 15.6222C19.2751 15.3239 18.3068 14.8575 17.5966 14.223C16.8864 13.5885 16.5336 12.7339 16.5384 11.6591C16.5336 10.7784 16.768 10.009 17.2415 9.35085C17.7197 8.69271 18.3755 8.17898 19.2088 7.80966C20.0421 7.44034 20.9891 7.25568 22.0497 7.25568C23.1293 7.25568 24.0715 7.44034 24.8764 7.80966C25.6861 8.17898 26.3158 8.69271 26.7656 9.35085C27.2154 10.009 27.4474 10.7713 27.4616 11.6378H24.5142Z" fill="#1C1C1C"/>
    <defs>
        <linearGradient id="paint0_linear_0_1" x1="3" y1="28.5" x2="27.5" y2="4" gradientUnits="userSpaceOnUse">
            <stop stop-color="#47A38E"/>
            <stop offset="1" stop-color="#7E5195"/>
        </linearGradient>
    </defs>
</svg>