<svg width="13" height="13" viewBox="0 0 13 13" fill="none" xmlns="http://www.w3.org/2000/svg">
    <path fill-rule="evenodd" clip-rule="evenodd" d="M5.74999 0C5.74999 0 6.91949 0 7.9883 0.452068C7.9883 0.452068 9.02027 0.888554 9.81585 1.68413C9.81585 1.68413 10.6114 2.47971 11.0479 3.51168C11.0479 3.51168 11.5 4.58049 11.5 5.74999C11.5 5.74999 11.5 6.91949 11.0479 7.9883C11.0479 7.9883 10.6114 9.02027 9.81585 9.81585C9.81585 9.81585 9.02027 10.6114 7.9883 11.0479C7.9883 11.0479 6.91949 11.5 5.74999 11.5C5.74999 11.5 4.58049 11.5 3.51168 11.0479C3.51168 11.0479 2.47971 10.6114 1.68413 9.81585C1.68413 9.81585 0.888554 9.02027 0.452068 7.9883C0.452068 7.9883 0 6.91949 0 5.74999C0 5.74999 0 4.58049 0.452067 3.51168C0.452067 3.51168 0.888553 2.47971 1.68413 1.68413C1.68413 1.68413 2.47971 0.888555 3.51168 0.452068C3.51168 0.452068 4.58049 0 5.74999 0ZM5.74999 0.999999C5.74999 0.999999 4.78327 0.999998 3.90123 1.37307C3.90123 1.37307 3.0489 1.73358 2.39124 2.39124C2.39124 2.39124 1.73358 3.0489 1.37307 3.90123C1.37307 3.90123 0.999998 4.78327 0.999998 5.74999C0.999998 5.74999 0.999998 6.7167 1.37307 7.59875C1.37307 7.59875 1.73358 8.45108 2.39124 9.10874C2.39124 9.10874 3.0489 9.7664 3.90123 10.1269C3.90123 10.1269 4.78328 10.5 5.74999 10.5C5.74999 10.5 6.7167 10.5 7.59875 10.1269C7.59875 10.1269 8.45108 9.7664 9.10874 9.10874C9.10874 9.10874 9.7664 8.45108 10.1269 7.59875C10.1269 7.59875 10.5 6.7167 10.5 5.74999C10.5 5.74999 10.5 4.78328 10.1269 3.90123C10.1269 3.90123 9.7664 3.0489 9.10874 2.39124C9.10874 2.39124 8.45108 1.73358 7.59875 1.37307C7.59875 1.37307 6.7167 0.999998 5.74999 0.999999Z" fill="white" fill-opacity="0.85"/>
    <path d="M12.1462 12.8533C12.24 12.9471 12.3674 13 12.5 13C12.6326 13 12.7598 12.9473 12.8536 12.8536C12.9473 12.7598 13 12.6326 13 12.5C13 12.3674 12.9473 12.2402 12.8536 12.1464L9.81612 9.10901C9.72229 9.01519 9.59511 8.96251 9.46251 8.96251C9.3299 8.96251 9.20251 9.01497 9.10874 9.10874C9.01497 9.20251 8.96251 9.3299 8.96251 9.46251C8.96251 9.59511 9.01519 9.72229 9.10895 9.81606L12.1462 12.8533Z" fill="white" fill-opacity="0.85"/>
</svg>
