<svg  width="15" height="13" viewBox="0 0 15 13" fill="1C1C1C" xmlns="http://www.w3.org/2000/svg">
<path d="M2.375 11.8182C1.82272 11.8182 1.375 11.3705 1.375 10.8182V0.590909C1.375 0.264559 1.12316 0 0.8125 0C0.50184 0 0.25 0.264559 0.25 0.590909V12.4091C0.25 12.7354 0.50184 13 0.8125 13H14.3125C14.6232 13 14.875 12.7354 14.875 12.4091C14.875 12.0827 14.6232 11.8182 14.3125 11.8182H2.375Z"/>
<path d="M0.414963 9.6274C0.309474 9.73821 0.25 9.88874 0.25 10.0455C0.25 10.0549 0.250217 10.0644 0.250649 10.0738C0.257367 10.2206 0.315871 10.3594 0.414752 10.4633C0.520242 10.5741 0.663316 10.6364 0.8125 10.6364C0.961684 10.6364 1.10476 10.5741 1.21025 10.4633L4.5882 6.91474C4.98232 6.50071 5.64268 6.50071 6.0368 6.91474L7.16475 8.09965C7.38442 8.33042 7.74058 8.33042 7.96025 8.09965L13.5852 2.19056C13.6907 2.07975 13.75 1.92945 13.75 1.77273C13.75 1.61601 13.6907 1.46571 13.5852 1.35489C13.4798 1.24407 13.3367 1.18182 13.1875 1.18182C13.0383 1.18182 12.8952 1.24407 12.7898 1.35489L8.2868 6.08526C7.89268 6.49929 7.23232 6.49929 6.8382 6.08526L5.71025 4.90035C5.60476 4.78953 5.46168 4.72727 5.3125 4.72727C5.16332 4.72727 5.02024 4.78953 4.91475 4.90035L0.414963 9.6274Z"/>
<path d="M13.1875 1.18182H10.375C10.0643 1.18182 9.8125 1.44638 9.8125 1.77273C9.8125 2.09908 10.0643 2.36364 10.375 2.36364H11.625C12.1773 2.36364 12.625 2.81135 12.625 3.36364V4.72727C12.625 5.05362 12.8768 5.31818 13.1875 5.31818C13.4982 5.31818 13.75 5.05362 13.75 4.72727V1.77273C13.75 1.44638 13.4982 1.18182 13.1875 1.18182Z"/>
</svg>
